<svg id="Layer_1" data-name="Layer 1" xmlns="http://www.w3.org/2000/svg" viewBox="0 0 140.65 41.24">
  <defs>
    <style>
      .cls-1 {
        fill: #222;
      }
    </style>
  </defs>
  <title>logo_gff</title>
  <path class="cls-1" d="M74.61,126.7a1.25,1.25,0,0,0,.78-0.25,2.72,2.72,0,0,0,.54-0.54,4.75,4.75,0,0,0,.45-0.79v-4.52l-1.18-.29V120h5.59v0.29l-1.18.29v6.58h-0.3a3.3,3.3,0,0,1-1.38-.25,2.58,2.58,0,0,1-.79-0.54,2,2,0,0,1-.47-0.79,3.11,3.11,0,0,1-.65.88,3.33,3.33,0,0,1-.88.61,2.91,2.91,0,0,1-1.31.28,4.89,4.89,0,0,1-2.1-.47A5.07,5.07,0,0,1,70,125.53a6.88,6.88,0,0,1-1.2-2.25,9.78,9.78,0,0,1-.44-3.06,9.55,9.55,0,0,1,.45-3.06,6.3,6.3,0,0,1,1.28-2.25,5.39,5.39,0,0,1,2-1.38,6.5,6.5,0,0,1,2.51-.47,3.73,3.73,0,0,1,1.27.21,6.1,6.1,0,0,1,1,.44,4.3,4.3,0,0,1,.87.63,3.09,3.09,0,0,1,.34-0.46,4.2,4.2,0,0,1,.34-0.34,3.39,3.39,0,0,1,.39-0.27h0.49V117H78.44a6.58,6.58,0,0,0-.77-1.71,4.85,4.85,0,0,0-1.1-1.19,2.63,2.63,0,0,0-1.67-.54,2.34,2.34,0,0,0-1.16.32,2.85,2.85,0,0,0-1,1.1A7.09,7.09,0,0,0,72,117a16.06,16.06,0,0,0-.27,3.19,17.44,17.44,0,0,0,.24,3.17,6.78,6.78,0,0,0,.64,2,2.54,2.54,0,0,0,.91,1A2.07,2.07,0,0,0,74.61,126.7Z" transform="translate(-22.31 -106.76)"/>
  <path class="cls-1" d="M88.74,113.35v0.29l-1.18.29V126.6h4.22a4.11,4.11,0,0,1,.2-1.34,5.47,5.47,0,0,1,.43-1,2.77,2.77,0,0,1,.65-0.75h0.59v3.53H83.15v-0.3l1.18-.29V113.94l-1.18-.29v-0.29h5.6Z" transform="translate(-22.31 -106.76)"/>
  <path class="cls-1" d="M108,120.22a9.38,9.38,0,0,1-.46,3.06,6.35,6.35,0,0,1-1.3,2.25,5.4,5.4,0,0,1-2,1.38,7.46,7.46,0,0,1-5.22,0,5.4,5.4,0,0,1-2-1.38,6.37,6.37,0,0,1-1.29-2.25,10.36,10.36,0,0,1,0-6.12A6.36,6.36,0,0,1,97,114.91a5.4,5.4,0,0,1,2-1.38,7.46,7.46,0,0,1,5.22,0,5.4,5.4,0,0,1,2,1.38,6.34,6.34,0,0,1,1.3,2.25A9.38,9.38,0,0,1,108,120.22Zm-3.44,0a16.78,16.78,0,0,0-.26-3.25,7.77,7.77,0,0,0-.69-2.09,2.82,2.82,0,0,0-1-1.11,1.83,1.83,0,0,0-2.08,0,2.83,2.83,0,0,0-1,1.11,7.77,7.77,0,0,0-.69,2.09,20,20,0,0,0,0,6.5,7.77,7.77,0,0,0,.69,2.09,2.84,2.84,0,0,0,1,1.11,1.83,1.83,0,0,0,2.08,0,2.82,2.82,0,0,0,1-1.11,7.77,7.77,0,0,0,.69-2.09A16.79,16.79,0,0,0,104.55,120.22Z" transform="translate(-22.31 -106.76)"/>
  <path class="cls-1" d="M112.5,127.09v-0.3l1.18-.29V113.84h-2.26a3.87,3.87,0,0,1-.21,1.35,5.36,5.36,0,0,1-.44,1,2.93,2.93,0,0,1-.63.75h-0.59v-3.53H121v3.53h-0.59a2.71,2.71,0,0,1-.65-0.75,5,5,0,0,1-.43-1,4.09,4.09,0,0,1-.2-1.35h-2.26V126.5l1.18,0.29v0.3h-5.6Z" transform="translate(-22.31 -106.76)"/>
  <path class="cls-1" d="M128.3,126.89a2.3,2.3,0,0,0,2.45-2.45,1.88,1.88,0,0,0-.52-1.33,6.64,6.64,0,0,0-1.28-1q-0.77-.49-1.68-1a10.19,10.19,0,0,1-1.68-1.12,5.9,5.9,0,0,1-1.29-1.46,3.72,3.72,0,0,1-.52-2,3,3,0,0,1,1.19-2.41,4.52,4.52,0,0,1,1.5-.75,7.29,7.29,0,0,1,2.12-.28,3.8,3.8,0,0,1,1.28.21,6,6,0,0,1,1,.44,4.28,4.28,0,0,1,.86.63,3.39,3.39,0,0,1,.34-0.46,3.9,3.9,0,0,1,.35-0.34,3.34,3.34,0,0,1,.39-0.27h0.49V117h-0.79a6.51,6.51,0,0,0-.77-1.71,4.71,4.71,0,0,0-1.1-1.19,2.61,2.61,0,0,0-1.67-.54,1.62,1.62,0,0,0-.71.16,1.83,1.83,0,0,0-.59.44,2.17,2.17,0,0,0-.41.69,2.36,2.36,0,0,0-.16.87,2.12,2.12,0,0,0,.52,1.44,6.42,6.42,0,0,0,1.29,1.11q0.76,0.51,1.68,1a11.74,11.74,0,0,1,1.68,1.09,6.09,6.09,0,0,1,1.29,1.37,3.21,3.21,0,0,1,.52,1.85,3.39,3.39,0,0,1-.33,1.46,3.53,3.53,0,0,1-1,1.23,5,5,0,0,1-1.69.83,8.34,8.34,0,0,1-2.38.3,5.23,5.23,0,0,1-1.51-.2,6.47,6.47,0,0,1-1.1-.43,4,4,0,0,1-.92-0.65,2.46,2.46,0,0,1-.34.47c-0.12.13-.24,0.24-0.34,0.33a3.37,3.37,0,0,1-.39.27h-0.49v-3.73h0.79a6.21,6.21,0,0,0,.83,1.73,5.4,5.4,0,0,0,.53.64,3.43,3.43,0,0,0,.68.54,3.74,3.74,0,0,0,.85.38A3.49,3.49,0,0,0,128.3,126.89Z" transform="translate(-22.31 -106.76)"/>
  <path class="cls-1" d="M143.22,120a4.81,4.81,0,0,1,.22-0.76,4.45,4.45,0,0,1,.29-0.64,4.57,4.57,0,0,1,.37-0.57h0.59v4.42h-0.59a4.41,4.41,0,0,1-.37-0.57,4.67,4.67,0,0,1-.29-0.63,4.4,4.4,0,0,1-.22-0.77H141v6.09h4.61a4.11,4.11,0,0,1,.2-1.34,5.32,5.32,0,0,1,.43-1,2.74,2.74,0,0,1,.65-0.75h0.59v3.53H136.55v-0.3l1.18-.29V113.94l-1.18-.29v-0.29h10.5v3.53h-0.59a2.74,2.74,0,0,1-.65-0.75,5.25,5.25,0,0,1-.43-1,4.08,4.08,0,0,1-.2-1.35H141V120h2.26Z" transform="translate(-22.31 -106.76)"/>
  <path class="cls-1" d="M157.06,120.81a4.57,4.57,0,0,1,1.28.22,3.9,3.9,0,0,1,1,.52,2.38,2.38,0,0,1,.82,1L162,126.5l1,0.29v0.3H160.2a2.24,2.24,0,0,1-1.45-.46,3.22,3.22,0,0,1-.9-1.21l-2-4.42h-1.28v5.5l1.38,0.29v0.3h-5.79v-0.3l1.18-.29V113.94l-1.18-.29v-0.29h5.2a13,13,0,0,1,3,.29,5.8,5.8,0,0,1,1.93.79,2.93,2.93,0,0,1,1.06,1.21,3.66,3.66,0,0,1,.33,1.55,3.19,3.19,0,0,1-.2,1.17,3,3,0,0,1-1.27,1.52,4.88,4.88,0,0,1-.85.41,7,7,0,0,1-2.3.43v0.1Zm-1.67-.29a2.81,2.81,0,0,0,2.14-.85,4.24,4.24,0,0,0,0-5,2.81,2.81,0,0,0-2.14-.85h-0.79v6.68h0.79Z" transform="translate(-22.31 -106.76)"/>
  <g>
    <path class="cls-1" d="M36.57,146.88a11.57,11.57,0,0,1-3.12-2.55,6.26,6.26,0,0,1-.41-7.58,8.63,8.63,0,0,1,8.22-4.14A8.38,8.38,0,0,1,48.67,137a17.31,17.31,0,0,1,.95,2.6l-0.27.15a11.75,11.75,0,0,0-8.31-2,9.49,9.49,0,0,0-5.24,2,3.77,3.77,0,0,0,.08,6.33,9,9,0,0,0,2.94,1.49,20.71,20.71,0,0,0,3.72.4,8.79,8.79,0,0,0,5.64-2.42,8.28,8.28,0,0,0-.64-12.09,17,17,0,0,0-7.46-3.23,9.32,9.32,0,0,0-3,.15c-4.34.56-5.57-.19-5.57-0.54s1-.47,1.44-0.48c3.21,0,3.53.34,5.29,0.31,3.06,0,6.06-.4,8.22-3a8.29,8.29,0,0,0,.53-0.75,0.72,0.72,0,0,0,.11-0.37,8.68,8.68,0,0,1-3.71,1.82,8.64,8.64,0,0,1-9.25-5.2A7.42,7.42,0,0,1,37.41,113a9.86,9.86,0,0,1,10.76,0c0.37,0.22.72,0.47,0.92,0.6a17.82,17.82,0,0,1-1-2.88,4.61,4.61,0,0,1,.57-3.12A20.62,20.62,0,1,0,37.2,147.2Z" transform="translate(-22.31 -106.76)"/>
    <path class="cls-1" d="M51.74,108.74a2.77,2.77,0,0,0-2.21,4,7.09,7.09,0,0,0,1,1.8c3,3.92,1.59,7.92-.86,10.59A17,17,0,0,1,41.18,130l-0.68.12c0.85,0.19,2.06.46,2.9,0.66a28.11,28.11,0,0,1,8.67,3.39,13.84,13.84,0,0,1,2.44,2,6,6,0,0,1,.86,7.72A20.63,20.63,0,0,0,51.74,108.74Z" transform="translate(-22.31 -106.76)"/>
    <path class="cls-1" d="M42.92,111.82c-2.06,0-3.1.7-3.68,2.56a16.9,16.9,0,0,0-.51,6.76,17.76,17.76,0,0,0,.8,3.8,3.08,3.08,0,0,0,3.08,2.1A3.93,3.93,0,0,0,46.55,124a14.06,14.06,0,0,0,.68-4.17,37.21,37.21,0,0,0-.32-4.17,6.45,6.45,0,0,0-.31-1.26C46,112.54,45,111.82,42.92,111.82Z" transform="translate(-22.31 -106.76)"/>
  </g>
  <g>
    <path class="cls-1" d="M88.31,134.48v0.9H85.15v1.37H88v0.9h-2.8v2.28h-1v-5.45h4.14Z" transform="translate(-22.31 -106.76)"/>
    <path class="cls-1" d="M92.7,139.92h-1v-5.45h1v5.45Z" transform="translate(-22.31 -106.76)"/>
    <path class="cls-1" d="M101.39,134.48v5.45h-0.9L97.29,136v3.91h-1v-5.45h0.9l3.22,3.92v-3.92h0.94Z" transform="translate(-22.31 -106.76)"/>
    <path class="cls-1" d="M105,134.48h4.23v0.89H106v1.26h2.9v0.88H106V139h3.38v0.88H105v-5.45Z" transform="translate(-22.31 -106.76)"/>
    <path class="cls-1" d="M122.48,134.48v0.9h-3.16v1.37h2.8v0.9h-2.8v2.28h-1v-5.45h4.14Z" transform="translate(-22.31 -106.76)"/>
    <path class="cls-1" d="M130,139.38a2.49,2.49,0,0,1-3.36,0,2.39,2.39,0,0,1-.69-1.71v-3.16h1v3.21a1.41,1.41,0,0,0,.41,1,1.34,1.34,0,0,0,1,.43,1.4,1.4,0,0,0,1.4-1.44v-3.21h1v3.16A2.38,2.38,0,0,1,130,139.38Z" transform="translate(-22.31 -106.76)"/>
    <path class="cls-1" d="M138.67,137.67a1.82,1.82,0,0,1-.74.57l1,1.68h-1.11L137,138.44h-1.67v1.48h-1v-5.45H137a2.1,2.1,0,0,1,1.47.58,2,2,0,0,1,.59,1.42A1.93,1.93,0,0,1,138.67,137.67Zm-3.38-.11H137a1,1,0,0,0,.77-0.33,1.14,1.14,0,0,0,.29-0.76,1.09,1.09,0,0,0-1.11-1.11h-1.68v2.2Z" transform="translate(-22.31 -106.76)"/>
    <path class="cls-1" d="M143,134.83a2.88,2.88,0,0,1,1.71-.46,4.65,4.65,0,0,1,2.19.54l-0.36.77a4,4,0,0,0-1.77-.44,2.05,2.05,0,0,0-1.14.24,0.54,0.54,0,0,0-.24.46,0.38,0.38,0,0,0,.21.34,1.48,1.48,0,0,0,.59.2l1.11,0.2a2.86,2.86,0,0,1,1.47.63,1.34,1.34,0,0,1,.38,1,1.44,1.44,0,0,1-.63,1.24,3.54,3.54,0,0,1-1.94.46,4.7,4.7,0,0,1-2.22-.49l0.3-.8a5,5,0,0,0,1.91.4,2.33,2.33,0,0,0,1.41-.31,0.59,0.59,0,0,0,.22-0.48,0.58,0.58,0,0,0-.22-0.45,2.07,2.07,0,0,0-.8-0.28l-1.21-.21a2.12,2.12,0,0,1-1.19-.52A1.44,1.44,0,0,1,143,134.83Z" transform="translate(-22.31 -106.76)"/>
  </g>
</svg>
